<svg xmlns="http://www.w3.org/2000/svg" xmlns:xlink="http://www.w3.org/1999/xlink" width="1080" zoomAndPan="magnify" viewBox="0 0 810 153.000002" height="204" preserveAspectRatio="xMidYMid meet" version="1.0"><defs><g/><clipPath id="7303a4bb10"><path d="M 17 17 L 807.371094 17 L 807.371094 152.007812 L 17 152.007812 Z M 17 17 " clip-rule="nonzero"/></clipPath><clipPath id="be418f3fb6"><rect x="0" width="791" y="0" height="136"/></clipPath></defs><g clip-path="url(#7303a4bb10)"><g transform="matrix(1, 0, 0, 1, 17, 17)"><g clip-path="url(#be418f3fb6)"><g fill="#1c794c" fill-opacity="1"><g transform="translate(0.830514, 100.916457)"><g><path d="M 74.53125 -40.328125 C 74.53125 -44.835938 74.382812 -49.078125 74.09375 -53.046875 C 73.800781 -57.015625 73.40625 -60.753906 72.90625 -64.265625 C 71.820312 -71.023438 69.941406 -76.785156 67.265625 -81.546875 C 64.515625 -86.140625 60.882812 -89.601562 56.375 -91.9375 C 54.03125 -93.113281 51.394531 -93.992188 48.46875 -94.578125 C 45.550781 -95.160156 42.335938 -95.453125 38.828125 -95.453125 C 35.078125 -95.453125 31.71875 -95.160156 28.75 -94.578125 C 25.78125 -93.992188 23.171875 -93.113281 20.921875 -91.9375 C 16.328125 -89.4375 12.773438 -85.929688 10.265625 -81.421875 C 9.015625 -79.085938 7.972656 -76.476562 7.140625 -73.59375 C 6.304688 -70.707031 5.679688 -67.554688 5.265625 -64.140625 C 4.765625 -60.710938 4.410156 -57.015625 4.203125 -53.046875 C 3.992188 -49.078125 3.890625 -44.835938 3.890625 -40.328125 C 3.890625 -35.828125 3.992188 -31.59375 4.203125 -27.625 C 4.410156 -23.65625 4.765625 -19.957031 5.265625 -16.53125 C 5.679688 -13.03125 6.304688 -9.835938 7.140625 -6.953125 C 7.972656 -4.066406 9.015625 -1.457031 10.265625 0.875 C 12.859375 5.46875 16.410156 8.9375 20.921875 11.28125 C 23.171875 12.363281 25.78125 13.21875 28.75 13.84375 C 31.71875 14.46875 35.078125 14.78125 38.828125 14.78125 C 42.335938 14.78125 45.550781 14.46875 48.46875 13.84375 C 51.394531 13.21875 54.03125 12.363281 56.375 11.28125 C 60.882812 8.9375 64.515625 5.46875 67.265625 0.875 C 69.941406 -3.800781 71.820312 -9.601562 72.90625 -16.53125 C 73.40625 -19.957031 73.800781 -23.65625 74.09375 -27.625 C 74.382812 -31.59375 74.53125 -35.828125 74.53125 -40.328125 Z M 81.671875 14.65625 L 99.453125 14.65625 C 102.296875 14.65625 104.34375 14.15625 105.59375 13.15625 C 106.6875 11.90625 107.234375 9.941406 107.234375 7.265625 L 107.234375 -34.328125 L 115.25 -34.328125 C 118.164062 -34.328125 120.207031 -34.867188 121.375 -35.953125 C 122.46875 -37.035156 123.015625 -38.957031 123.015625 -41.71875 L 123.015625 -53.859375 L 107.234375 -53.859375 L 107.234375 -94.828125 L 81.671875 -94.828125 Z M 48.984375 -40.328125 C 48.984375 -36.492188 48.921875 -33.03125 48.796875 -29.9375 C 48.671875 -26.84375 48.523438 -24.128906 48.359375 -21.796875 C 47.847656 -17.203125 47.21875 -13.609375 46.46875 -11.015625 C 45.550781 -8.347656 44.507812 -6.679688 43.34375 -6.015625 C 42.175781 -5.179688 40.710938 -4.765625 38.953125 -4.765625 C 37.285156 -4.765625 35.910156 -5.179688 34.828125 -6.015625 C 33.566406 -6.765625 32.5625 -8.390625 31.8125 -10.890625 C 30.894531 -13.398438 30.269531 -16.992188 29.9375 -21.671875 C 29.6875 -24.003906 29.519531 -26.738281 29.4375 -29.875 C 29.351562 -33.007812 29.3125 -36.492188 29.3125 -40.328125 C 29.3125 -44.253906 29.351562 -47.765625 29.4375 -50.859375 C 29.519531 -53.953125 29.6875 -56.664062 29.9375 -59 C 30.351562 -63.675781 30.976562 -67.265625 31.8125 -69.765625 C 32.5625 -72.191406 33.566406 -73.863281 34.828125 -74.78125 C 35.992188 -75.53125 37.367188 -75.90625 38.953125 -75.90625 C 40.460938 -75.90625 41.925781 -75.488281 43.34375 -74.65625 C 44.59375 -73.820312 45.632812 -72.148438 46.46875 -69.640625 C 47.21875 -67.140625 47.847656 -63.550781 48.359375 -58.875 C 48.523438 -56.539062 48.671875 -53.828125 48.796875 -50.734375 C 48.921875 -47.640625 48.984375 -44.171875 48.984375 -40.328125 Z M 48.984375 -40.328125 "/></g></g></g><g fill="#1c794c" fill-opacity="1"><g transform="translate(126.089566, 100.916457)"><g><path d="M 3 -94.828125 L 3 -74.65625 L 26.1875 -74.65625 C 24.925781 -66.8125 22.332031 -61.007812 18.40625 -57.25 C 14.15625 -53.15625 9.019531 -50.359375 3 -48.859375 L 3 -29.8125 C 10.9375 -30.5625 18.035156 -32.691406 24.296875 -36.203125 C 30.484375 -39.460938 35.617188 -43.972656 39.703125 -49.734375 C 43.710938 -43.972656 48.847656 -39.460938 55.109375 -36.203125 C 61.128906 -32.691406 68.226562 -30.5625 76.40625 -29.8125 L 76.40625 -48.859375 C 70.226562 -50.359375 65.09375 -53.15625 61 -57.25 C 56.820312 -61.175781 54.191406 -66.976562 53.109375 -74.65625 L 68.890625 -74.65625 C 71.816406 -74.65625 73.863281 -75.195312 75.03125 -76.28125 C 76.113281 -77.375 76.65625 -79.296875 76.65625 -82.046875 L 76.65625 -94.828125 Z M 7.765625 -24.921875 L 7.765625 -5.390625 L 89.1875 -5.390625 L 89.1875 19.546875 L 106.984375 19.546875 C 109.816406 19.546875 111.859375 19.039062 113.109375 18.03125 C 114.203125 16.78125 114.75 14.820312 114.75 12.15625 L 114.75 -24.921875 Z M 89.1875 -29.8125 L 106.984375 -29.8125 C 109.898438 -29.8125 111.941406 -30.351562 113.109375 -31.4375 C 114.203125 -32.519531 114.75 -34.441406 114.75 -37.203125 L 114.75 -94.828125 L 89.1875 -94.828125 Z M 89.1875 -29.8125 "/></g></g></g><g fill="#1c794c" fill-opacity="1"><g transform="translate(251.348619, 100.916457)"><g><path d="M 75.28125 -19.796875 L 105.59375 -19.796875 C 108.519531 -19.796875 110.566406 -20.335938 111.734375 -21.421875 C 112.816406 -22.503906 113.359375 -24.425781 113.359375 -27.1875 L 113.359375 -39.328125 L 40.84375 -39.328125 C 39.332031 -39.328125 38.410156 -39.535156 38.078125 -39.953125 C 37.578125 -40.378906 37.328125 -41.257812 37.328125 -42.59375 L 37.328125 -75.28125 L 113.359375 -75.28125 L 113.359375 -94.828125 L 11.78125 -94.828125 L 11.78125 -34.578125 C 11.78125 -29.316406 12.945312 -25.554688 15.28125 -23.296875 C 17.539062 -20.960938 21.632812 -19.796875 27.5625 -19.796875 L 49.734375 -19.796875 L 49.734375 -4.890625 L 4.890625 -4.890625 L 4.890625 14.65625 L 112.484375 14.65625 C 115.328125 14.65625 117.375 14.15625 118.625 13.15625 C 119.707031 11.90625 120.25 9.941406 120.25 7.265625 L 120.25 -4.890625 L 75.28125 -4.890625 Z M 75.28125 -19.796875 "/></g></g></g><g fill="#1c794c" fill-opacity="1"><g transform="translate(376.607671, 100.916457)"><g/></g></g><g fill="#1c794c" fill-opacity="1"><g transform="translate(411.680206, 100.916457)"><g><path d="M 36.203125 19.546875 L 87.6875 19.546875 C 91.363281 19.546875 94.953125 19.296875 98.453125 18.796875 C 100.128906 18.535156 101.757812 18.132812 103.34375 17.59375 C 104.925781 17.050781 106.390625 16.40625 107.734375 15.65625 C 110.234375 14.070312 112.40625 11.859375 114.25 9.015625 C 115 7.515625 115.582031 5.820312 116 3.9375 C 116.414062 2.0625 116.625 -0.0390625 116.625 -2.375 C 116.625 -4.632812 116.414062 -6.679688 116 -8.515625 C 115.582031 -10.359375 115 -12.03125 114.25 -13.53125 C 112.65625 -16.363281 110.523438 -18.660156 107.859375 -20.421875 C 105.179688 -22.003906 102.085938 -23.171875 98.578125 -23.921875 C 96.828125 -24.253906 95.03125 -24.503906 93.1875 -24.671875 C 91.351562 -24.835938 89.476562 -24.921875 87.5625 -24.921875 L 35.828125 -24.921875 C 33.984375 -24.921875 32.164062 -24.835938 30.375 -24.671875 C 28.582031 -24.503906 26.847656 -24.296875 25.171875 -24.046875 C 21.503906 -23.296875 18.414062 -22.128906 15.90625 -20.546875 C 13.238281 -18.867188 11.109375 -16.570312 9.515625 -13.65625 C 7.929688 -10.726562 7.140625 -7.007812 7.140625 -2.5 C 7.140625 2.175781 7.929688 5.972656 9.515625 8.890625 C 11.023438 11.648438 13.195312 13.863281 16.03125 15.53125 C 18.789062 17.113281 21.878906 18.203125 25.296875 18.796875 C 28.804688 19.296875 32.441406 19.546875 36.203125 19.546875 Z M 46.96875 -94.828125 L 26.9375 -94.828125 L 26.9375 -85.1875 C 26.9375 -74.238281 24.972656 -66.050781 21.046875 -60.625 C 16.953125 -55.03125 10.9375 -51.359375 3 -49.609375 L 3 -29.9375 C 11.4375 -30.6875 18.703125 -32.773438 24.796875 -36.203125 C 30.734375 -39.460938 35.703125 -43.972656 39.703125 -49.734375 C 43.796875 -43.890625 48.765625 -39.378906 54.609375 -36.203125 C 60.628906 -32.773438 67.894531 -30.6875 76.40625 -29.9375 L 76.40625 -49.609375 C 68.3125 -51.359375 62.300781 -55.03125 58.375 -60.625 C 54.445312 -65.882812 52.484375 -74.070312 52.484375 -85.1875 L 52.484375 -88.6875 C 52.484375 -89.601562 52.398438 -90.4375 52.234375 -91.1875 C 52.066406 -91.945312 51.859375 -92.617188 51.609375 -93.203125 C 50.773438 -94.285156 49.226562 -94.828125 46.96875 -94.828125 Z M 89.1875 -29.8125 L 106.984375 -29.8125 C 109.898438 -29.8125 111.941406 -30.351562 113.109375 -31.4375 C 114.203125 -32.519531 114.75 -34.441406 114.75 -37.203125 L 114.75 -94.828125 L 89.1875 -94.828125 L 89.1875 -79.921875 L 71.03125 -79.921875 L 71.03125 -61.625 L 89.1875 -61.625 Z M 86.3125 1.125 L 37.828125 1.125 C 36.242188 1.125 34.992188 0.832031 34.078125 0.25 C 33.148438 -0.25 32.6875 -1.25 32.6875 -2.75 C 32.6875 -4.175781 33.191406 -5.179688 34.203125 -5.765625 C 34.703125 -6.015625 35.242188 -6.222656 35.828125 -6.390625 C 36.410156 -6.554688 37.078125 -6.640625 37.828125 -6.640625 L 86.3125 -6.640625 C 87.0625 -6.640625 87.726562 -6.554688 88.3125 -6.390625 C 88.894531 -6.222656 89.4375 -6.015625 89.9375 -5.765625 C 90.769531 -5.097656 91.1875 -4.09375 91.1875 -2.75 C 91.1875 -0.164062 89.5625 1.125 86.3125 1.125 Z M 86.3125 1.125 "/></g></g></g><g fill="#1c794c" fill-opacity="1"><g transform="translate(536.939258, 100.916457)"><g><path d="M 36.203125 19.546875 L 81.421875 19.546875 C 85.097656 19.546875 88.691406 19.296875 92.203125 18.796875 C 93.867188 18.535156 95.492188 18.132812 97.078125 17.59375 C 98.660156 17.050781 100.125 16.40625 101.46875 15.65625 C 103.96875 14.070312 106.140625 11.859375 107.984375 9.015625 C 108.734375 7.515625 109.316406 5.820312 109.734375 3.9375 C 110.148438 2.0625 110.359375 -0.0390625 110.359375 -2.375 C 110.359375 -4.632812 110.148438 -6.679688 109.734375 -8.515625 C 109.316406 -10.359375 108.734375 -12.03125 107.984375 -13.53125 C 106.390625 -16.363281 104.257812 -18.660156 101.59375 -20.421875 C 98.914062 -22.003906 95.828125 -23.171875 92.328125 -23.921875 C 90.566406 -24.253906 88.765625 -24.503906 86.921875 -24.671875 C 85.085938 -24.835938 83.210938 -24.921875 81.296875 -24.921875 L 35.828125 -24.921875 C 33.984375 -24.921875 32.164062 -24.835938 30.375 -24.671875 C 28.582031 -24.503906 26.847656 -24.296875 25.171875 -24.046875 C 21.503906 -23.296875 18.414062 -22.128906 15.90625 -20.546875 C 13.238281 -18.867188 11.109375 -16.570312 9.515625 -13.65625 C 7.929688 -10.726562 7.140625 -7.007812 7.140625 -2.5 C 7.140625 2.175781 7.929688 5.972656 9.515625 8.890625 C 11.023438 11.648438 13.195312 13.863281 16.03125 15.53125 C 18.789062 17.113281 21.878906 18.203125 25.296875 18.796875 C 28.804688 19.296875 32.441406 19.546875 36.203125 19.546875 Z M 3 -94.828125 L 3 -74.65625 L 26.1875 -74.65625 C 24.925781 -66.8125 22.332031 -61.007812 18.40625 -57.25 C 14.15625 -53.15625 9.019531 -50.359375 3 -48.859375 L 3 -29.8125 C 10.9375 -30.5625 18.035156 -32.691406 24.296875 -36.203125 C 30.484375 -39.460938 35.617188 -43.972656 39.703125 -49.734375 C 43.710938 -43.972656 48.847656 -39.460938 55.109375 -36.203125 C 61.128906 -32.691406 68.226562 -30.5625 76.40625 -29.8125 L 76.40625 -48.859375 C 70.226562 -50.359375 65.09375 -53.15625 61 -57.25 C 56.820312 -61.175781 54.191406 -66.976562 53.109375 -74.65625 L 68.890625 -74.65625 C 71.816406 -74.65625 73.863281 -75.195312 75.03125 -76.28125 C 76.113281 -77.375 76.65625 -79.296875 76.65625 -82.046875 L 76.65625 -94.828125 Z M 81.671875 -29.8125 L 99.453125 -29.8125 C 102.378906 -29.8125 104.425781 -30.351562 105.59375 -31.4375 C 106.6875 -32.519531 107.234375 -34.441406 107.234375 -37.203125 L 107.234375 -52.984375 L 115.25 -52.984375 C 118.164062 -52.984375 120.207031 -53.523438 121.375 -54.609375 C 122.46875 -55.703125 123.015625 -57.625 123.015625 -60.375 L 123.015625 -72.53125 L 107.234375 -72.53125 L 107.234375 -94.828125 L 81.671875 -94.828125 Z M 80.046875 1.125 L 37.828125 1.125 C 36.242188 1.125 34.992188 0.832031 34.078125 0.25 C 33.148438 -0.25 32.6875 -1.25 32.6875 -2.75 C 32.6875 -4.175781 33.191406 -5.179688 34.203125 -5.765625 C 34.703125 -6.015625 35.242188 -6.222656 35.828125 -6.390625 C 36.410156 -6.554688 37.078125 -6.640625 37.828125 -6.640625 L 80.046875 -6.640625 C 80.796875 -6.640625 81.460938 -6.554688 82.046875 -6.390625 C 82.628906 -6.222656 83.171875 -6.015625 83.671875 -5.765625 C 84.515625 -5.097656 84.9375 -4.09375 84.9375 -2.75 C 84.9375 -0.164062 83.304688 1.125 80.046875 1.125 Z M 80.046875 1.125 "/></g></g></g><g fill="#1c794c" fill-opacity="1"><g transform="translate(662.198311, 100.916457)"><g><path d="M 4.890625 -46.59375 L 4.890625 -28.1875 L 49.734375 -28.1875 L 49.734375 -23.671875 L 38.453125 -23.671875 C 36.617188 -23.671875 34.84375 -23.585938 33.125 -23.421875 C 31.414062 -23.253906 29.726562 -23.046875 28.0625 -22.796875 C 24.550781 -22.046875 21.546875 -20.921875 19.046875 -19.421875 C 16.453125 -17.742188 14.40625 -15.488281 12.90625 -12.65625 C 11.3125 -9.8125 10.515625 -6.21875 10.515625 -1.875 C 10.515625 2.71875 11.3125 6.429688 12.90625 9.265625 C 14.40625 12.023438 16.492188 14.195312 19.171875 15.78125 C 21.671875 17.28125 24.675781 18.285156 28.1875 18.796875 C 31.613281 19.296875 35.160156 19.546875 38.828125 19.546875 L 86.4375 19.546875 C 89.9375 19.546875 93.441406 19.296875 96.953125 18.796875 C 100.210938 18.285156 103.21875 17.28125 105.96875 15.78125 C 108.5625 14.28125 110.648438 12.148438 112.234375 9.390625 C 113.828125 6.390625 114.625 2.675781 114.625 -1.75 C 114.625 -6.09375 113.867188 -9.6875 112.359375 -12.53125 C 110.773438 -15.195312 108.6875 -17.453125 106.09375 -19.296875 C 103.425781 -20.878906 100.421875 -22.046875 97.078125 -22.796875 C 95.328125 -23.046875 93.570312 -23.253906 91.8125 -23.421875 C 90.0625 -23.585938 88.226562 -23.671875 86.3125 -23.671875 L 75.28125 -23.671875 L 75.28125 -28.1875 L 112.484375 -28.1875 C 115.410156 -28.1875 117.457031 -28.726562 118.625 -29.8125 C 119.707031 -30.894531 120.25 -32.816406 120.25 -35.578125 L 120.25 -46.59375 Z M 10.890625 -94.828125 L 10.890625 -77.796875 L 41.09375 -77.796875 C 38.164062 -75.617188 34.15625 -73.820312 29.0625 -72.40625 C 23.96875 -70.90625 17.492188 -70.15625 9.640625 -70.15625 L 9.640625 -51.734375 C 12.648438 -51.734375 15.570312 -51.835938 18.40625 -52.046875 C 21.25 -52.253906 24.050781 -52.566406 26.8125 -52.984375 C 32.15625 -53.734375 37.125 -54.863281 41.71875 -56.375 C 43.96875 -57.125 46.09375 -57.957031 48.09375 -58.875 C 50.101562 -59.789062 52.023438 -60.789062 53.859375 -61.875 C 57.367188 -64.050781 60.25 -66.554688 62.5 -69.390625 C 64.757812 -66.472656 67.6875 -63.96875 71.28125 -61.875 C 73.03125 -60.789062 74.90625 -59.789062 76.90625 -58.875 C 78.914062 -57.957031 81.085938 -57.125 83.421875 -56.375 C 88.015625 -54.863281 92.984375 -53.734375 98.328125 -52.984375 C 101.003906 -52.566406 103.78125 -52.253906 106.65625 -52.046875 C 109.539062 -51.835938 112.488281 -51.734375 115.5 -51.734375 L 115.5 -70.15625 C 107.5625 -70.15625 101.085938 -70.90625 96.078125 -72.40625 C 90.898438 -73.820312 86.847656 -75.617188 83.921875 -77.796875 L 106.46875 -77.796875 C 109.394531 -77.796875 111.441406 -78.335938 112.609375 -79.421875 C 113.703125 -80.503906 114.25 -82.425781 114.25 -85.1875 L 114.25 -94.828125 Z M 83.921875 1.625 L 41.59375 1.625 C 39.914062 1.625 38.703125 1.375 37.953125 0.875 C 37.035156 0.289062 36.578125 -0.707031 36.578125 -2.125 C 36.578125 -3.550781 37.078125 -4.554688 38.078125 -5.140625 C 38.992188 -5.640625 40.164062 -5.890625 41.59375 -5.890625 L 83.921875 -5.890625 C 85.265625 -5.890625 86.4375 -5.640625 87.4375 -5.140625 C 88.269531 -4.472656 88.6875 -3.46875 88.6875 -2.125 C 88.6875 0.375 87.097656 1.625 83.921875 1.625 Z M 83.921875 1.625 "/></g></g></g><g fill="#1c794c" fill-opacity="1"><g transform="translate(787.470798, 100.916457)"><g/></g></g></g></g></g></svg>